<svg width="15" height="16" viewBox="0 0 15 16" fill="none" xmlns="http://www.w3.org/2000/svg">
<path d="M5.23483 10.4076C5.23483 9.1112 5.76195 7.92875 6.63097 7.07397C6.16085 6.86028 5.66222 6.74631 5.10662 6.74631C3.08364 6.74631 1.44531 8.38463 1.44531 10.4076C1.44531 12.4306 3.08364 14.0547 5.10662 14.0547C5.64798 14.0547 6.16085 13.9265 6.63097 13.727C5.76195 12.8865 5.23483 11.704 5.23483 10.4076Z" fill="#04C1C1"/>
<path d="M9.90764 10.2793C8.61123 10.2793 7.42878 9.7522 6.574 8.88318C6.36031 9.35331 6.24634 9.85193 6.24634 10.4075C6.24634 12.4163 7.88467 14.0546 9.90764 14.0546C11.9306 14.0546 13.5547 12.4163 13.5547 10.4075C13.5547 9.86618 13.4265 9.35331 13.227 8.88318C12.3865 9.73796 11.2041 10.2793 9.90764 10.2793Z" fill="#04C1C1"/>
<path d="M9.90766 1.94531C9.3663 1.94531 8.85343 2.07353 8.3833 2.27298C9.23808 3.12776 9.77944 4.29596 9.77944 5.60662C9.77944 6.91728 9.25233 8.08548 8.3833 8.94026C8.85343 9.15395 9.35205 9.26792 9.90766 9.26792C11.9164 9.26792 13.5547 7.6296 13.5547 5.60662C13.5547 3.58364 11.9306 1.94531 9.90766 1.94531Z" fill="#04C1C1"/>
<path d="M5.10662 5.73484C6.40303 5.73484 7.58548 6.26195 8.44026 7.13098C8.65395 6.66085 8.76792 6.16222 8.76792 5.60662C8.76792 3.58364 7.1296 1.94531 5.10662 1.94531C3.08364 1.94531 1.44531 3.58364 1.44531 5.60662C1.44531 6.14798 1.57353 6.66085 1.77298 7.13098C2.62776 6.26195 3.8102 5.73484 5.10662 5.73484Z" fill="#04C1C1"/>
</svg>
