<svg width="22" height="23" viewBox="0 0 22 23" fill="none" xmlns="http://www.w3.org/2000/svg">
<path d="M18.3333 6.38387V17.3839C18.3333 17.8701 18.1402 18.3364 17.7964 18.6802C17.4525 19.024 16.9862 19.2172 16.5 19.2172H7.33333C6.8471 19.2172 6.38079 19.024 6.03697 18.6802C5.69315 18.3364 5.5 17.8701 5.5 17.3839V6.38387C5.5 5.89764 5.69315 5.43132 6.03697 5.08751C6.38079 4.74369 6.8471 4.55054 7.33333 4.55054H16.5C16.9862 4.55054 17.4525 4.74369 17.7964 5.08751C18.1402 5.43132 18.3333 5.89764 18.3333 6.38387Z" stroke="#63DEA6" stroke-width="2" stroke-linecap="round" stroke-linejoin="round"/>
<path d="M9.16669 15.5505H14.6667" stroke="#63DEA6" stroke-width="2" stroke-linecap="round" stroke-linejoin="round"/>
<path d="M10.0834 10.9671C10.0834 11.4534 10.2765 11.9197 10.6203 12.2635C10.9642 12.6073 11.4305 12.8005 11.9167 12.8005C12.4029 12.8005 12.8693 12.6073 13.2131 12.2635C13.5569 11.9197 13.75 11.4534 13.75 10.9671C13.75 10.4809 13.5569 10.0146 13.2131 9.67076C12.8693 9.32694 12.4029 9.13379 11.9167 9.13379C11.4305 9.13379 10.9642 9.32694 10.6203 9.67076C10.2765 10.0146 10.0834 10.4809 10.0834 10.9671Z" stroke="#63DEA6" stroke-width="2" stroke-linecap="round" stroke-linejoin="round"/>
<path d="M3.66669 8.21729H6.41669" stroke="#63DEA6" stroke-width="2" stroke-linecap="round" stroke-linejoin="round"/>
<path d="M3.66669 11.8838H6.41669" stroke="#63DEA6" stroke-width="2" stroke-linecap="round" stroke-linejoin="round"/>
<path d="M3.66669 15.5505H6.41669" stroke="#63DEA6" stroke-width="2" stroke-linecap="round" stroke-linejoin="round"/>
</svg>
