<svg width="18" height="19" viewBox="0 0 18 19" fill="none" xmlns="http://www.w3.org/2000/svg">
<path d="M6 4C6 4.79565 6.31607 5.55871 6.87868 6.12132C7.44129 6.68393 8.20435 7 9 7C9.79565 7 10.5587 6.68393 11.1213 6.12132C11.6839 5.55871 12 4.79565 12 4C12 3.20435 11.6839 2.44129 11.1213 1.87868C10.5587 1.31607 9.79565 1 9 1C8.20435 1 7.44129 1.31607 6.87868 1.87868C6.31607 2.44129 6 3.20435 6 4Z" stroke="#63DEA6" stroke-linecap="round" stroke-linejoin="round"/>
<path d="M3.8349 7H14.1649C14.3991 6.99996 14.6259 7.08213 14.8057 7.23216C14.9855 7.3822 15.107 7.59059 15.1489 7.821L16.7859 16.821C16.8121 16.9651 16.8064 17.1133 16.769 17.2549C16.7317 17.3966 16.6637 17.5283 16.5698 17.6408C16.4759 17.7532 16.3585 17.8437 16.2258 17.9058C16.0931 17.9679 15.9484 18 15.8019 18H2.1979C2.05141 18 1.9067 17.9679 1.77401 17.9058C1.64131 17.8437 1.52388 17.7532 1.43001 17.6408C1.33615 17.5283 1.26813 17.3966 1.23079 17.2549C1.19345 17.1133 1.18768 16.9651 1.2139 16.821L2.8509 7.821C2.89283 7.59059 3.01429 7.3822 3.19411 7.23216C3.37393 7.08213 3.60071 6.99996 3.8349 7Z" stroke="#63DEA6" stroke-linecap="round" stroke-linejoin="round"/>
<path d="M9 10V15.1354" stroke="#63DEA6" stroke-linecap="round"/>
<path d="M6.43213 12.5676H11.5675" stroke="#63DEA6" stroke-linecap="round"/>
</svg>
