<svg width="15" height="16" viewBox="0 0 15 16" fill="none" xmlns="http://www.w3.org/2000/svg">
<path d="M11.1254 12.8856L9.76789 13.5969C9.72761 13.6179 9.68229 13.6272 9.63699 13.6239C9.5917 13.6206 9.54821 13.6048 9.51139 13.5782C9.47456 13.5516 9.44585 13.5153 9.42846 13.4734C9.41107 13.4314 9.40568 13.3855 9.41289 13.3406L9.67227 11.8338L8.57414 10.7669C8.54137 10.7352 8.51816 10.6949 8.50717 10.6507C8.49618 10.6065 8.49785 10.56 8.51199 10.5167C8.52614 10.4733 8.55218 10.4348 8.58715 10.4056C8.62212 10.3763 8.66461 10.3575 8.70977 10.3513L10.2273 10.1313L10.906 8.76064C10.9263 8.71982 10.9576 8.68547 10.9964 8.66146C11.0351 8.63745 11.0798 8.62473 11.1254 8.62473C11.171 8.62473 11.2157 8.63745 11.2544 8.66146C11.2932 8.68547 11.3245 8.71982 11.3448 8.76064L12.0235 10.1313L13.541 10.3513C13.586 10.3577 13.6284 10.3767 13.6632 10.406C13.698 10.4352 13.7239 10.4737 13.738 10.5169C13.7521 10.5602 13.7539 10.6065 13.743 10.6507C13.7322 10.6948 13.7092 10.7351 13.6766 10.7669L12.5785 11.8338L12.8373 13.34C12.845 13.3849 12.84 13.4311 12.8229 13.4734C12.8057 13.5156 12.777 13.5521 12.7401 13.5789C12.7032 13.6056 12.6596 13.6215 12.6141 13.6247C12.5686 13.6279 12.5232 13.6182 12.4829 13.5969L11.1254 12.8856Z" stroke="#04C1C1" stroke-linecap="round" stroke-linejoin="round"/>
<path d="M3.87539 12.8856L2.51789 13.5969C2.47761 13.6179 2.43229 13.6272 2.38699 13.6239C2.3417 13.6206 2.29821 13.6048 2.26139 13.5782C2.22456 13.5516 2.19585 13.5153 2.17846 13.4734C2.16107 13.4314 2.15568 13.3855 2.16289 13.3406L2.42227 11.8338L1.32414 10.7669C1.29137 10.7352 1.26816 10.6949 1.25717 10.6507C1.24618 10.6065 1.24785 10.56 1.26199 10.5167C1.27614 10.4733 1.30218 10.4348 1.33715 10.4056C1.37212 10.3763 1.41461 10.3575 1.45977 10.3513L2.97727 10.1313L3.65602 8.76064C3.67632 8.71982 3.7076 8.68547 3.74636 8.66146C3.78512 8.63745 3.8298 8.62473 3.87539 8.62473C3.92098 8.62473 3.96567 8.63745 4.00443 8.66146C4.04318 8.68547 4.07447 8.71982 4.09477 8.76064L4.77352 10.1313L6.29102 10.3513C6.33604 10.3577 6.37836 10.3767 6.41318 10.406C6.44799 10.4352 6.47392 10.4737 6.48804 10.5169C6.50215 10.5602 6.50388 10.6065 6.49303 10.6507C6.48218 10.6948 6.45918 10.7351 6.42664 10.7669L5.32852 11.8338L5.58727 13.34C5.59503 13.3849 5.59005 13.4311 5.57288 13.4734C5.55571 13.5156 5.52704 13.5521 5.49014 13.5789C5.45323 13.6056 5.40956 13.6215 5.36409 13.6247C5.31862 13.6279 5.27316 13.6182 5.23289 13.5969L3.87539 12.8856Z" stroke="#04C1C1" stroke-linecap="round" stroke-linejoin="round"/>
<path d="M7.50039 6.63564L6.14289 7.34689C6.10261 7.36786 6.05729 7.37721 6.01199 7.37392C5.9667 7.37062 5.92321 7.3548 5.88639 7.32822C5.84956 7.30164 5.82085 7.26534 5.80346 7.22339C5.78607 7.18144 5.78068 7.13548 5.78789 7.09064L6.04727 5.58376L4.94914 4.51689C4.91637 4.4852 4.89316 4.44494 4.88217 4.4007C4.87118 4.35645 4.87285 4.31001 4.88699 4.26667C4.90114 4.22333 4.92718 4.18484 4.96215 4.15559C4.99712 4.12635 5.03961 4.10752 5.08477 4.10127L6.60227 3.88126L7.28102 2.51064C7.30132 2.46982 7.3326 2.43547 7.37136 2.41146C7.41011 2.38745 7.4548 2.37473 7.50039 2.37473C7.54598 2.37473 7.59067 2.38745 7.62943 2.41146C7.66818 2.43547 7.69947 2.46982 7.71977 2.51064L8.39852 3.88126L9.91602 4.10127C9.96104 4.10774 10.0034 4.12669 10.0382 4.15596C10.073 4.18524 10.0989 4.22367 10.113 4.26692C10.1271 4.31016 10.1289 4.35649 10.118 4.40067C10.1072 4.44484 10.0842 4.4851 10.0516 4.51689L8.95352 5.58376L9.21227 7.09001C9.22003 7.13493 9.21505 7.18113 9.19788 7.22335C9.18071 7.26558 9.15204 7.30214 9.11514 7.3289C9.07823 7.35565 9.03456 7.37152 8.98909 7.3747C8.94362 7.37788 8.89816 7.36824 8.85789 7.34689L7.50039 6.63564Z" stroke="#04C1C1" stroke-linecap="round" stroke-linejoin="round"/>
</svg>
