<svg width="21" height="20" viewBox="0 0 21 20" fill="none" xmlns="http://www.w3.org/2000/svg">
<g clip-path="url(#clip0_364_40481)">
<path fill-rule="evenodd" clip-rule="evenodd" d="M10.6719 0.0959473C16.0226 0.0959473 20.3625 4.35054 20.3625 9.59595C20.3625 14.3385 16.8194 18.2684 12.1861 18.9809V12.342H14.4441L14.8737 9.59595H12.1861V7.8147C12.1861 7.06323 12.5608 6.33032 13.7646 6.33032H14.9873V3.99243C14.9873 3.99243 13.8782 3.80688 12.8182 3.80688C10.6057 3.80688 9.15777 5.12056 9.15777 7.50298V9.59595H6.69727V12.342H9.15777V18.9809C4.52445 18.2684 0.981323 14.3367 0.981323 9.59595C0.981323 4.35054 5.32128 0.0959473 10.6719 0.0959473Z" fill="white"/>
</g>
<defs>
<clipPath id="clip0_364_40481">
<rect width="19.3812" height="19" fill="white" transform="translate(0.981323 0.0959473)"/>
</clipPath>
</defs>
</svg>
