<svg width="23" height="23" viewBox="0 0 23 23" fill="none" xmlns="http://www.w3.org/2000/svg">
<path d="M3.86749 5.08335C3.86749 4.84024 3.96407 4.60708 4.13598 4.43517C4.30789 4.26326 4.54104 4.16669 4.78416 4.16669H8.45083C8.69394 4.16669 8.9271 4.26326 9.09901 4.43517C9.27092 4.60708 9.36749 4.84024 9.36749 5.08335V8.75002C9.36749 8.99314 9.27092 9.22629 9.09901 9.3982C8.9271 9.57011 8.69394 9.66669 8.45083 9.66669H4.78416C4.54104 9.66669 4.30789 9.57011 4.13598 9.3982C3.96407 9.22629 3.86749 8.99314 3.86749 8.75002V5.08335Z" stroke="#111010" stroke-width="2" stroke-linecap="round" stroke-linejoin="round"/>
<path d="M13.0342 5.08335C13.0342 4.84024 13.1308 4.60708 13.3027 4.43517C13.4746 4.26326 13.7077 4.16669 13.9508 4.16669H17.6175C17.8606 4.16669 18.0938 4.26326 18.2657 4.43517C18.4376 4.60708 18.5342 4.84024 18.5342 5.08335V8.75002C18.5342 8.99314 18.4376 9.22629 18.2657 9.3982C18.0938 9.57011 17.8606 9.66669 17.6175 9.66669H13.9508C13.7077 9.66669 13.4746 9.57011 13.3027 9.3982C13.1308 9.22629 13.0342 8.99314 13.0342 8.75002V5.08335Z" stroke="#111010" stroke-width="2" stroke-linecap="round" stroke-linejoin="round"/>
<path d="M3.86749 14.25C3.86749 14.0069 3.96407 13.7738 4.13598 13.6019C4.30789 13.43 4.54104 13.3334 4.78416 13.3334H8.45083C8.69394 13.3334 8.9271 13.43 9.09901 13.6019C9.27092 13.7738 9.36749 14.0069 9.36749 14.25V17.9167C9.36749 18.1598 9.27092 18.393 9.09901 18.5649C8.9271 18.7368 8.69394 18.8334 8.45083 18.8334H4.78416C4.54104 18.8334 4.30789 18.7368 4.13598 18.5649C3.96407 18.393 3.86749 18.1598 3.86749 17.9167V14.25Z" stroke="#111010" stroke-width="2" stroke-linecap="round" stroke-linejoin="round"/>
<path d="M13.0342 14.25C13.0342 14.0069 13.1308 13.7738 13.3027 13.6019C13.4746 13.43 13.7077 13.3334 13.9508 13.3334H17.6175C17.8606 13.3334 18.0938 13.43 18.2657 13.6019C18.4376 13.7738 18.5342 14.0069 18.5342 14.25V17.9167C18.5342 18.1598 18.4376 18.393 18.2657 18.5649C18.0938 18.7368 17.8606 18.8334 17.6175 18.8334H13.9508C13.7077 18.8334 13.4746 18.7368 13.3027 18.5649C13.1308 18.393 13.0342 18.1598 13.0342 17.9167V14.25Z" stroke="#111010" stroke-width="2" stroke-linecap="round" stroke-linejoin="round"/>
</svg>
