<svg width="15" height="16" viewBox="0 0 15 16" fill="none" xmlns="http://www.w3.org/2000/svg">
<path d="M2.5 3.625C2.5 3.45924 2.56585 3.30027 2.68306 3.18306C2.80027 3.06585 2.95924 3 3.125 3H5.625C5.79076 3 5.94973 3.06585 6.06694 3.18306C6.18415 3.30027 6.25 3.45924 6.25 3.625V6.125C6.25 6.29076 6.18415 6.44973 6.06694 6.56694C5.94973 6.68415 5.79076 6.75 5.625 6.75H3.125C2.95924 6.75 2.80027 6.68415 2.68306 6.56694C2.56585 6.44973 2.5 6.29076 2.5 6.125V3.625Z" stroke="#04C1C1" stroke-linecap="round" stroke-linejoin="round"/>
<path d="M8.75 3.625C8.75 3.45924 8.81585 3.30027 8.93306 3.18306C9.05027 3.06585 9.20924 3 9.375 3H11.875C12.0408 3 12.1997 3.06585 12.3169 3.18306C12.4342 3.30027 12.5 3.45924 12.5 3.625V6.125C12.5 6.29076 12.4342 6.44973 12.3169 6.56694C12.1997 6.68415 12.0408 6.75 11.875 6.75H9.375C9.20924 6.75 9.05027 6.68415 8.93306 6.56694C8.81585 6.44973 8.75 6.29076 8.75 6.125V3.625Z" stroke="#04C1C1" stroke-linecap="round" stroke-linejoin="round"/>
<path d="M2.5 9.875C2.5 9.70924 2.56585 9.55027 2.68306 9.43306C2.80027 9.31585 2.95924 9.25 3.125 9.25H5.625C5.79076 9.25 5.94973 9.31585 6.06694 9.43306C6.18415 9.55027 6.25 9.70924 6.25 9.875V12.375C6.25 12.5408 6.18415 12.6997 6.06694 12.8169C5.94973 12.9342 5.79076 13 5.625 13H3.125C2.95924 13 2.80027 12.9342 2.68306 12.8169C2.56585 12.6997 2.5 12.5408 2.5 12.375V9.875Z" stroke="#04C1C1" stroke-linecap="round" stroke-linejoin="round"/>
<path d="M8.75 9.875C8.75 9.70924 8.81585 9.55027 8.93306 9.43306C9.05027 9.31585 9.20924 9.25 9.375 9.25H11.875C12.0408 9.25 12.1997 9.31585 12.3169 9.43306C12.4342 9.55027 12.5 9.70924 12.5 9.875V12.375C12.5 12.5408 12.4342 12.6997 12.3169 12.8169C12.1997 12.9342 12.0408 13 11.875 13H9.375C9.20924 13 9.05027 12.9342 8.93306 12.8169C8.81585 12.6997 8.75 12.5408 8.75 12.375V9.875Z" stroke="#04C1C1" stroke-linecap="round" stroke-linejoin="round"/>
</svg>
