<svg width="20" height="20" viewBox="0 0 20 20" fill="none" xmlns="http://www.w3.org/2000/svg">
<g clip-path="url(#clip0_364_40467)">
<path fill-rule="evenodd" clip-rule="evenodd" d="M4.51207 19.0959H14.8731C17.3639 19.0959 19.3812 17.1183 19.3852 14.6765V4.51927C19.3852 2.07747 17.3639 0.0959473 14.8731 0.0959473H4.51207C2.02128 0.0959473 0 2.07747 0 4.51927V14.6765C0 17.1183 2.02128 19.0959 4.51207 19.0959ZM6.68057 2.61576H12.7006C14.9726 2.61576 16.8148 4.41785 16.8108 6.64512V12.5468C16.8108 14.7701 14.9726 16.5761 12.7006 16.5761H6.68057C4.4126 16.5761 2.57037 14.774 2.57037 12.5468V6.64512C2.57037 4.42175 4.40862 2.61576 6.68057 2.61576ZM12.7723 15.3279C14.2803 15.3279 15.5018 14.1304 15.5018 12.6521V6.61001C15.5018 5.13167 14.2803 3.93417 12.7723 3.93417H6.60895C5.10095 3.93417 3.87943 5.13167 3.87943 6.61001V12.6521C3.87943 14.1304 5.10095 15.3279 6.60895 15.3279H12.7723ZM5.9962 9.633C5.9962 7.63198 7.65142 6.00931 9.69259 6.00931C11.7338 6.00931 13.389 7.63198 13.389 9.633C13.389 11.634 11.7338 13.2567 9.69259 13.2567C7.65142 13.2567 5.9962 11.634 5.9962 9.633ZM7.2973 9.633C7.2973 10.928 8.36762 11.9812 9.69259 11.9812C11.0136 11.9812 12.0879 10.928 12.0879 9.633C12.0879 8.33799 11.0176 7.28482 9.69259 7.28482C8.3716 7.28482 7.2973 8.33409 7.2973 9.633ZM13.5123 6.71143C13.987 6.71143 14.3718 6.33421 14.3718 5.86889C14.3718 5.40357 13.987 5.02635 13.5123 5.02635C13.0377 5.02635 12.6529 5.40357 12.6529 5.86889C12.6529 6.33421 13.0377 6.71143 13.5123 6.71143Z" fill="white"/>
</g>
<defs>
<clipPath id="clip0_364_40467">
<rect width="19.3812" height="19" fill="white" transform="translate(0 0.0959473)"/>
</clipPath>
</defs>
</svg>
