<svg width="20" height="20" viewBox="0 0 20 20" fill="none" xmlns="http://www.w3.org/2000/svg">
<g clip-path="url(#clip0_364_40486)">
<path d="M16.5325 16.2849H13.6608V11.8761C13.6608 10.8248 13.6417 9.47137 12.1672 9.47137C10.6716 9.47137 10.4427 10.6168 10.4427 11.7995V16.2846H7.57104V7.21828H10.3279V8.45729H10.3665C10.9286 7.51504 11.9738 6.95228 13.0865 6.99277C15.9971 6.99277 16.5337 8.86961 16.5337 11.3113L16.5325 16.2849ZM4.33082 5.97898C3.41045 5.97914 2.66421 5.24782 2.66404 4.34553C2.66388 3.44325 3.40985 2.71167 4.33022 2.71151C5.25059 2.71134 5.99683 3.44266 5.997 4.34495C5.99708 4.77824 5.82158 5.19382 5.50911 5.50026C5.19664 5.8067 4.7728 5.9789 4.33082 5.97898ZM5.76666 16.2849H2.89198V7.21828H5.76666V16.2849ZM17.9642 0.0971199H1.44896C0.668417 0.0884845 0.0283249 0.701432 0.0187988 1.46663V17.7245C0.0279988 18.4901 0.66804 19.1036 1.44896 19.0956H17.9642C18.7466 19.1051 19.3892 18.4916 19.4 17.7245V1.46546C19.3889 0.698747 18.7463 0.0858349 17.9642 0.0958235" fill="white"/>
</g>
<defs>
<clipPath id="clip0_364_40486">
<rect width="19.3812" height="19" fill="white" transform="translate(0.0192871 0.0959473)"/>
</clipPath>
</defs>
</svg>
