<svg width="22" height="23" viewBox="0 0 22 23" fill="none" xmlns="http://www.w3.org/2000/svg">
<g clip-path="url(#clip0_2904_378)">
<path d="M7.70854 3.81995H5.51424C4.93228 3.81995 4.37415 4.05113 3.96264 4.46264C3.55113 4.87415 3.31995 5.43228 3.31995 6.01424V19.18C3.31995 19.762 3.55113 20.3201 3.96264 20.7316C4.37415 21.1431 4.93228 21.3743 5.51424 21.3743H16.4857C17.0677 21.3743 17.6258 21.1431 18.0373 20.7316C18.4488 20.3201 18.68 19.762 18.68 19.18V6.01424C18.68 5.43228 18.4488 4.87415 18.0373 4.46264C17.6258 4.05113 17.0677 3.81995 16.4857 3.81995H14.2914" stroke="#04C1C1" stroke-width="2" stroke-linecap="round" stroke-linejoin="round"/>
<path d="M7.70856 3.81995C7.70856 3.23799 7.93974 2.67986 8.35125 2.26835C8.76276 1.85684 9.32089 1.62566 9.90285 1.62566H12.0972C12.6791 1.62566 13.2372 1.85684 13.6488 2.26835C14.0603 2.67986 14.2914 3.23799 14.2914 3.81995C14.2914 4.40192 14.0603 4.96004 13.6488 5.37155C13.2372 5.78306 12.6791 6.01425 12.0972 6.01425H9.90285C9.32089 6.01425 8.76276 5.78306 8.35125 5.37155C7.93974 4.96004 7.70856 4.40192 7.70856 3.81995Z" stroke="#04C1C1" stroke-width="2" stroke-linecap="round" stroke-linejoin="round"/>
<path d="M7.70856 11.5H7.71923" stroke="#04C1C1" stroke-width="2" stroke-linecap="round" stroke-linejoin="round"/>
<path d="M12.0971 11.5H14.2914" stroke="#04C1C1" stroke-width="2" stroke-linecap="round" stroke-linejoin="round"/>
<path d="M7.70856 15.8886H7.71923" stroke="#04C1C1" stroke-width="2" stroke-linecap="round" stroke-linejoin="round"/>
<path d="M12.0971 15.8886H14.2914" stroke="#04C1C1" stroke-width="2" stroke-linecap="round" stroke-linejoin="round"/>
</g>
<defs>
<clipPath id="clip0_2904_378">
<rect width="22" height="22" fill="white" transform="translate(0 0.5)"/>
</clipPath>
</defs>
</svg>
