<svg width="35" height="36" viewBox="0 0 35 36" fill="none" xmlns="http://www.w3.org/2000/svg">
<rect x="0.5" y="0.961365" width="34" height="34" stroke="#63DEA6"/>
<path d="M8.9458 13.209C8.9458 12.7048 9.14608 12.2213 9.50257 11.8648C9.85907 11.5084 10.3426 11.3081 10.8467 11.3081H24.1533C24.6574 11.3081 25.1409 11.5084 25.4974 11.8648C25.8539 12.2213 26.0542 12.7048 26.0542 13.209V22.7137C26.0542 23.2178 25.8539 23.7013 25.4974 24.0578C25.1409 24.4143 24.6574 24.6146 24.1533 24.6146H10.8467C10.3426 24.6146 9.85907 24.4143 9.50257 24.0578C9.14608 23.7013 8.9458 23.2178 8.9458 22.7137V13.209Z" stroke="#63DEA6" stroke-linecap="round" stroke-linejoin="round"/>
<path d="M8.9458 13.209L17.5 18.9118L26.0542 13.209" stroke="#63DEA6" stroke-linecap="round" stroke-linejoin="round"/>
</svg>
