<svg width="15" height="16" viewBox="0 0 15 16" fill="none" xmlns="http://www.w3.org/2000/svg">
<path d="M10 4.25H11.875C12.0408 4.25 12.1997 4.31585 12.3169 4.43306C12.4342 4.55027 12.5 4.70924 12.5 4.875V11.75C12.5 12.0815 12.3683 12.3995 12.1339 12.6339C11.8995 12.8683 11.5815 13 11.25 13M11.25 13C10.9185 13 10.6005 12.8683 10.3661 12.6339C10.1317 12.3995 10 12.0815 10 11.75V3.625C10 3.45924 9.93415 3.30027 9.81694 3.18306C9.69973 3.06585 9.54076 3 9.375 3H3.125C2.95924 3 2.80027 3.06585 2.68306 3.18306C2.56585 3.30027 2.5 3.45924 2.5 3.625V11.125C2.5 11.6223 2.69754 12.0992 3.04917 12.4508C3.40081 12.8025 3.87772 13 4.375 13H11.25Z" stroke="#04C1C1" stroke-linecap="round" stroke-linejoin="round"/>
<path d="M5 5.5H7.5" stroke="#04C1C1" stroke-linecap="round" stroke-linejoin="round"/>
<path d="M5 8H7.5" stroke="#04C1C1" stroke-linecap="round" stroke-linejoin="round"/>
<path d="M5 10.5H7.5" stroke="#04C1C1" stroke-linecap="round" stroke-linejoin="round"/>
</svg>
