<svg width="19" height="19" viewBox="0 0 19 19" fill="none" xmlns="http://www.w3.org/2000/svg">
<path d="M1 14C1 13.7348 1.10536 13.4804 1.29289 13.2929C1.48043 13.1054 1.73478 13 2 13H5C5.26522 13 5.51957 13.1054 5.70711 13.2929C5.89464 13.4804 6 13.7348 6 14V17C6 17.2652 5.89464 17.5196 5.70711 17.7071C5.51957 17.8946 5.26522 18 5 18H2C1.73478 18 1.48043 17.8946 1.29289 17.7071C1.10536 17.5196 1 17.2652 1 17V14Z" stroke="#63DEA6" stroke-linecap="round" stroke-linejoin="round"/>
<path d="M2 9V3C2 2.46957 2.21071 1.96086 2.58579 1.58579C2.96086 1.21071 3.46957 1 4 1H16C16.5304 1 17.0391 1.21071 17.4142 1.58579C17.7893 1.96086 18 2.46957 18 3V15C18 15.5304 17.7893 16.0391 17.4142 16.4142C17.0391 16.7893 16.5304 17 16 17H10" stroke="#63DEA6" stroke-linecap="round" stroke-linejoin="round"/>
<path d="M13 10H9V6" stroke="#63DEA6" stroke-linecap="round" stroke-linejoin="round"/>
<path d="M9 10L14 5" stroke="#63DEA6" stroke-linecap="round" stroke-linejoin="round"/>
</svg>
