<svg width="154.189453" height="146.777100" viewBox="0 0 154.189 146.777" fill="none" xmlns="http://www.w3.org/2000/svg" xmlns:xlink="http://www.w3.org/1999/xlink">
	<desc>
			Created with Pixso.
	</desc>
	<defs/>
	<path id="Vector" d="M147.662 97.4482L154.187 93.5793L77.8184 49.5703L71.293 53.1975L147.662 97.4482Z" fill="#BC934C" fill-opacity="1.000000" fill-rule="nonzero"/>
	<path id="Vector" d="M76.3691 138.556L82.8936 134.928L6.2832 90.6777L0 94.5466L76.3691 138.556Z" fill="#BC934C" fill-opacity="1.000000" fill-rule="nonzero"/>
	<path id="Vector" d="M112.137 118.002L118.42 114.375L42.0508 70.124L35.7676 73.7512L112.137 118.002Z" fill="#BC934C" fill-opacity="1.000000" fill-rule="nonzero"/>
	<path id="Vector" d="M147.662 105.428L147.662 97.4482L71.293 53.1975L71.293 61.1772L147.662 105.428Z" fill="#936A19" fill-opacity="1.000000" fill-rule="nonzero"/>
	<path id="Vector" d="M76.3691 146.777L82.8945 142.908L82.8945 134.928L76.3691 138.556L76.3691 146.777Z" fill="#B39353" fill-opacity="1.000000" fill-rule="nonzero"/>
	<path id="Vector" d="M76.3691 146.777L76.3691 138.556L0 94.5466L0 102.526L76.3691 146.777Z" fill="#885E1D" fill-opacity="1.000000" fill-rule="nonzero"/>
	<path id="Vector" d="M112.137 125.982L112.137 118.002L35.7676 73.7512L35.7676 81.9727L112.137 125.982Z" fill="#936A19" fill-opacity="1.000000" fill-rule="nonzero"/>
	<path id="Vector" d="M65.0107 129.609L76.3691 136.138L154.188 91.1614L142.829 84.6326L65.0107 129.609Z" fill="#CFA761" fill-opacity="1.000000" fill-rule="nonzero"/>
	<path id="Vector" d="M154.188 91.1611L154.188 93.5791L76.3701 138.555L76.3701 136.137L154.188 91.1611Z" fill="#B39353" fill-opacity="1.000000" fill-rule="nonzero"/>
	<path id="Vector" d="M76.3691 136.137L76.3691 138.555L65.0107 132.027L65.0107 129.609L76.3691 136.137Z" fill="#885E1D" fill-opacity="1.000000" fill-rule="nonzero"/>
	<path id="Vector" d="M48.8193 120.178L60.1777 126.707L137.997 81.731L126.638 75.2021L48.8193 120.178Z" fill="#CFA761" fill-opacity="1.000000" fill-rule="nonzero"/>
	<path id="Vector" d="M137.996 81.731L137.996 84.1489L60.1777 129.125L60.1777 126.707L137.996 81.731Z" fill="#AD7D1D" fill-opacity="1.000000" fill-rule="nonzero"/>
	<path id="Vector" d="M60.1777 126.707L60.1777 129.125L48.8193 122.596L48.8193 120.178L60.1777 126.707Z" fill="#885E1D" fill-opacity="1.000000" fill-rule="nonzero"/>
	<path id="Vector" d="M32.3838 110.748L43.7422 117.277L121.803 72.3003L110.444 65.7715L32.3838 110.748Z" fill="#CFA761" fill-opacity="1.000000" fill-rule="nonzero"/>
	<path id="Vector" d="M121.803 72.3003L121.803 74.9602L43.7422 119.937L43.7422 117.277L121.803 72.3003Z" fill="#AD7D1D" fill-opacity="1.000000" fill-rule="nonzero"/>
	<path id="Vector" d="M43.7422 117.277L43.7422 119.937L32.3838 113.408L32.3838 110.748L43.7422 117.277Z" fill="#885E1D" fill-opacity="1.000000" fill-rule="nonzero"/>
	<path id="Vector" d="M16.1924 101.317L27.5508 107.846L105.37 62.8699L94.0107 56.3411L16.1924 101.317Z" fill="#CFA761" fill-opacity="1.000000" fill-rule="nonzero"/>
	<path id="Vector" d="M105.37 62.8696L105.37 65.5295L27.5518 110.506L27.5518 107.846L105.37 62.8696Z" fill="#AD7D1D" fill-opacity="1.000000" fill-rule="nonzero"/>
	<path id="Vector" d="M27.5518 107.846L27.5518 110.506L16.1934 103.977L16.1934 101.317L27.5518 107.846Z" fill="#885E1D" fill-opacity="1.000000" fill-rule="nonzero"/>
	<path id="Vector" d="M0 91.8867L11.3584 98.6572L89.1777 53.4392L77.8184 46.9104L0 91.8867Z" fill="#CFA761" fill-opacity="1.000000" fill-rule="nonzero"/>
	<path id="Vector" d="M89.1777 53.4392L89.1777 56.0991L11.3594 101.075L11.3594 98.6572L89.1777 53.4392Z" fill="#AD7D1D" fill-opacity="1.000000" fill-rule="nonzero"/>
	<path id="Vector" d="M11.3584 98.6572L11.3584 101.075L0 94.5466L0 91.8867L11.3584 98.6572Z" fill="#885E1D" fill-opacity="1.000000" fill-rule="nonzero"/>
	<path id="Vector" d="M154.188 93.5793L154.188 101.559L147.662 105.428L147.662 97.4482L154.188 93.5793Z" fill="#B39353" fill-opacity="1.000000" fill-rule="nonzero"/>
	<path id="Vector" d="M118.42 114.375L118.42 122.354L112.137 125.981L112.137 118.002L118.42 114.375Z" fill="#B39353" fill-opacity="1.000000" fill-rule="nonzero"/>
	<path id="Vector" d="M88.2109 85.1162L109.236 73.0259L109.236 44.7344L88.2109 56.8247L88.2109 85.1162Z" fill="#C7AB80" fill-opacity="1.000000" fill-rule="nonzero"/>
	<path id="Vector" d="M59.9355 68.9153L88.2109 85.1165L88.2109 56.825L59.9355 40.6238L59.9355 68.9153Z" fill="#B49B75" fill-opacity="1.000000" fill-rule="nonzero"/>
	<path id="Vector" d="M59.9355 40.6235L72.9863 47.8777L74.1943 48.603L88.2109 56.8247L109.237 44.7341L95.2197 36.5127L94.0117 35.7874L80.9609 28.2913L59.9355 40.6235Z" fill="#EFD7A9" fill-opacity="1.000000" fill-rule="nonzero"/>
	<path id="Vector" d="M72.9863 47.8777L74.1943 48.6033L95.2207 36.5127L94.0117 35.7874L72.9863 47.8777Z" fill="#C7AB80" fill-opacity="1.000000" fill-rule="nonzero"/>
	<path id="Vector" d="M78.3018 60.9355L85.7939 65.2881L85.7939 59.4846L78.3018 55.1321L78.3018 60.9355Z" fill="#FFFFFF" fill-opacity="1.000000" fill-rule="nonzero"/>
	<path id="Vector" d="M88.2109 56.825L109.236 44.4927L109.236 16.2012L88.2109 28.5334L88.2109 56.825Z" fill="#B49B75" fill-opacity="1.000000" fill-rule="nonzero"/>
	<path id="Vector" d="M59.9355 40.3818L88.2109 56.8247L88.2109 28.5332L59.9355 12.0903L59.9355 40.3818Z" fill="#C7AB80" fill-opacity="1.000000" fill-rule="nonzero"/>
	<path id="Vector" d="M59.9355 12.0903L72.9863 19.5864L74.1943 20.3118L88.2109 28.5334L109.237 16.2012L95.2197 8.22144L94.0117 7.49609L80.9609 0L59.9355 12.0903Z" fill="#EFD7A9" fill-opacity="1.000000" fill-rule="nonzero"/>
	<path id="Vector" d="M72.9863 19.5862L74.1943 20.3118L95.2207 8.22119L94.0117 7.49585L72.9863 19.5862Z" fill="#C7AB80" fill-opacity="1.000000" fill-rule="nonzero"/>
	<path id="Vector" d="M78.3018 32.644L85.7939 36.9966L85.7939 31.1931L78.3018 26.8406L78.3018 32.644Z" fill="#FFFFFF" fill-opacity="1.000000" fill-rule="nonzero"/>
	<path id="Vector" d="M65.252 69.8821L86.2773 57.7917L86.2773 29.5002L65.252 41.5906L65.252 69.8821Z" fill="#B49B75" fill-opacity="1.000000" fill-rule="nonzero"/>
	<path id="Vector" d="M36.9766 53.6809L65.252 69.8821L65.252 41.5906L36.9766 25.3894L36.9766 53.6809Z" fill="#C7AB80" fill-opacity="1.000000" fill-rule="nonzero"/>
	<path id="Vector" d="M36.9766 25.3894L50.0273 32.8855L51.2354 33.6108L65.252 41.5906L86.2783 29.5002L72.2607 21.5205L71.0527 20.7952L58.002 13.2991L36.9766 25.3894Z" fill="#EFD7A9" fill-opacity="1.000000" fill-rule="nonzero"/>
	<path id="Vector" d="M50.0264 32.8855L51.2344 33.6111L72.2607 21.5205L71.0518 20.7952L50.0264 32.8855Z" fill="#C7AB80" fill-opacity="1.000000" fill-rule="nonzero"/>
	<path id="Vector" d="M55.3438 45.9431L62.8359 50.2957L62.8359 44.2505L55.3438 40.1396L55.3438 45.9431Z" fill="#FFFFFF" fill-opacity="1.000000" fill-rule="nonzero"/>
	<path id="Vector" d="M42.292 111.715L63.3174 99.3831L63.3174 71.0916L42.292 83.4238L42.292 111.715Z" fill="#B49B75" fill-opacity="1.000000" fill-rule="nonzero"/>
	<path id="Vector" d="M14.0166 95.2725L42.292 111.715L42.292 83.4238L14.0166 66.981L14.0166 95.2725Z" fill="#C7AB80" fill-opacity="1.000000" fill-rule="nonzero"/>
	<path id="Vector" d="M14.0166 66.9807L27.0674 74.4768L28.2754 75.2021L42.292 83.4238L63.3184 71.0916L49.3008 63.1118L48.0928 62.3865L35.042 54.8904L14.0166 66.9807Z" fill="#EFD7A9" fill-opacity="1.000000" fill-rule="nonzero"/>
	<path id="Vector" d="M27.0674 74.4768L28.2754 75.2024L49.3018 63.1118L48.0928 62.3865L27.0674 74.4768Z" fill="#C7AB80" fill-opacity="1.000000" fill-rule="nonzero"/>
	<path id="Vector" d="M42.292 83.1819L63.3174 71.0916L63.3174 42.8L42.292 54.8904L42.292 83.1819Z" fill="#B49B75" fill-opacity="1.000000" fill-rule="nonzero"/>
	<path id="Vector" d="M14.0166 66.9807L42.292 83.1819L42.292 54.8904L14.0166 38.6892L14.0166 66.9807Z" fill="#C7AB80" fill-opacity="1.000000" fill-rule="nonzero"/>
	<path id="Vector" d="M14.0166 38.6892L27.0674 46.1853L28.2754 46.9106L42.292 54.8904L63.3184 42.8L49.3008 34.5786L48.0928 34.095L35.042 26.5989L14.0166 38.6892Z" fill="#EFD7A9" fill-opacity="1.000000" fill-rule="nonzero"/>
	<path id="Vector" d="M27.0674 46.1851L28.2754 46.9106L49.3018 34.5784L48.0928 34.0947L27.0674 46.1851Z" fill="#C7AB80" fill-opacity="1.000000" fill-rule="nonzero"/>
	<path id="Vector" d="M118.903 102.768L140.171 90.678L140.171 62.3865L118.903 74.4768L118.903 102.768Z" fill="#E9CA95" fill-opacity="1.000000" fill-rule="nonzero"/>
	<path id="Vector" d="M127.846 79.313L120.354 83.6655L120.354 77.8621L127.846 73.5095L127.846 79.313Z" fill="#FFFFFF" fill-opacity="1.000000" fill-rule="nonzero"/>
	<path id="Vector" d="M90.8691 86.5674L118.903 102.769L118.903 74.4771L90.8691 58.2759L90.8691 86.5674Z" fill="#C7AB80" fill-opacity="1.000000" fill-rule="nonzero"/>
	<path id="Vector" d="M90.8691 58.2754L103.678 65.7715L104.886 66.4968L118.903 74.4766L140.171 62.3862L125.912 54.4065L124.703 53.6812L111.895 46.1851L90.8691 58.2754Z" fill="#EFD7A9" fill-opacity="1.000000" fill-rule="nonzero"/>
	<path id="Vector" d="M103.678 65.7717L104.886 66.4973L125.912 54.4067L124.703 53.6814L103.678 65.7717Z" fill="#C7AB80" fill-opacity="1.000000" fill-rule="nonzero"/>
	<path id="Vector" d="M109.236 78.8293L116.729 83.1819L116.729 77.1367L109.236 73.0259L109.236 78.8293Z" fill="#FFFFFF" fill-opacity="1.000000" fill-rule="nonzero"/>
	<path id="Vector" d="M96.1865 116.067L117.212 103.977L117.212 75.6855L96.1865 87.7759L96.1865 116.067Z" fill="#E9CA95" fill-opacity="1.000000" fill-rule="nonzero"/>
	<path id="Vector" d="M105.129 92.6123L97.6367 96.7231L97.6367 90.9197L105.129 86.5671L105.129 92.6123Z" fill="#FFFFFF" fill-opacity="1.000000" fill-rule="nonzero"/>
	<path id="Vector" d="M67.9102 99.8662L96.1855 116.067L96.1855 87.7759L67.9102 71.5747L67.9102 99.8662Z" fill="#C7AB80" fill-opacity="1.000000" fill-rule="nonzero"/>
	<path id="Vector" d="M67.9102 71.575L80.9609 79.071L82.1689 79.7964L96.1855 87.7761L117.212 75.6858L103.194 67.4644L101.986 66.9807L88.9355 59.4846L67.9102 71.575Z" fill="#EFD7A9" fill-opacity="1.000000" fill-rule="nonzero"/>
	<path id="Vector" d="M80.9609 79.0708L82.1689 79.7964L103.195 67.4641L101.986 66.9805L80.9609 79.0708Z" fill="#C7AB80" fill-opacity="1.000000" fill-rule="nonzero"/>
	<path id="Vector" d="M86.2773 92.1287L93.7695 96.4812L93.7695 90.436L86.2773 86.0835L86.2773 92.1287Z" fill="#FFFFFF" fill-opacity="1.000000" fill-rule="nonzero"/>
	<path id="Vector" d="M118.903 74.4766L140.171 62.3862L140.171 34.0947L118.903 46.1851L118.903 74.4766Z" fill="#E9CA95" fill-opacity="1.000000" fill-rule="nonzero"/>
	<path id="Vector" d="M127.846 51.0212L120.354 55.3738L120.354 49.3286L127.846 44.9761L127.846 51.0212Z" fill="#FFFFFF" fill-opacity="1.000000" fill-rule="nonzero"/>
	<path id="Vector" d="M90.8691 58.2756L118.903 74.4768L118.903 46.1853L90.8691 29.9841L90.8691 58.2756Z" fill="#C7AB80" fill-opacity="1.000000" fill-rule="nonzero"/>
	<path id="Vector" d="M90.8691 29.9839L103.678 37.48L104.886 38.2053L118.903 46.1851L140.171 34.0947L125.912 26.115L124.703 25.3896L111.895 17.8936L90.8691 29.9839Z" fill="#EFD7A9" fill-opacity="1.000000" fill-rule="nonzero"/>
	<path id="Vector" d="M103.678 37.48L104.886 38.2056L125.912 26.115L124.703 25.3896L103.678 37.48Z" fill="#C7AB80" fill-opacity="1.000000" fill-rule="nonzero"/>
	<path id="Vector" d="M109.236 50.5376L116.729 54.8901L116.729 48.845L109.236 44.7341L109.236 50.5376Z" fill="#FFFFFF" fill-opacity="1.000000" fill-rule="nonzero"/>
	<path id="Vector" d="M96.1865 87.7759L117.212 75.6855L117.212 47.394L96.1865 59.4844L96.1865 87.7759Z" fill="#E9CA95" fill-opacity="1.000000" fill-rule="nonzero"/>
	<path id="Vector" d="M105.129 64.0791L97.6367 68.4316L97.6367 62.6282L105.129 58.2756L105.129 64.0791Z" fill="#FFFFFF" fill-opacity="1.000000" fill-rule="nonzero"/>
	<path id="Vector" d="M67.9102 71.575L96.1855 87.7761L96.1855 59.4846L67.9102 43.2834L67.9102 71.575Z" fill="#C7AB80" fill-opacity="1.000000" fill-rule="nonzero"/>
	<path id="Vector" d="M67.9102 43.2834L80.9609 50.7795L82.1689 51.5049L96.1855 59.4846L117.212 47.3943L103.194 39.1729L101.986 38.4473L88.9355 31.1931L67.9102 43.2834Z" fill="#EFD7A9" fill-opacity="1.000000" fill-rule="nonzero"/>
	<path id="Vector" d="M80.9609 50.7795L82.1689 51.5049L103.195 39.1726L101.986 38.4473L80.9609 50.7795Z" fill="#C7AB80" fill-opacity="1.000000" fill-rule="nonzero"/>
	<path id="Vector" d="M86.2773 63.8372L93.7695 68.1897L93.7695 62.1445L86.2773 57.792L86.2773 63.8372Z" fill="#FFFFFF" fill-opacity="1.000000" fill-rule="nonzero"/>
	<path id="Vector" d="M73.2275 129.367L94.2529 117.277L94.2529 88.9854L73.2275 101.076L73.2275 129.367Z" fill="#E9CA95" fill-opacity="1.000000" fill-rule="nonzero"/>
	<path id="Vector" d="M82.6533 105.428L75.1611 109.539L75.1611 103.736L82.6533 99.3833L82.6533 105.428Z" fill="#FFFFFF" fill-opacity="1.000000" fill-rule="nonzero"/>
	<path id="Vector" d="M44.9521 113.166L73.2275 129.367L73.2275 101.076L44.9521 84.8748L44.9521 113.166Z" fill="#C7AB80" fill-opacity="1.000000" fill-rule="nonzero"/>
	<path id="Vector" d="M44.9521 84.8748L58.0029 92.3708L59.2109 92.8545L73.2275 101.076L94.2539 88.9856L80.2363 80.7642L79.0283 80.0386L65.9775 72.7844L44.9521 84.8748Z" fill="#EFD7A9" fill-opacity="1.000000" fill-rule="nonzero"/>
	<path id="Vector" d="M58.002 92.3708L59.21 92.8545L80.2363 80.7639L79.0273 80.0386L58.002 92.3708Z" fill="#C7AB80" fill-opacity="1.000000" fill-rule="nonzero"/>
	<path id="Vector" d="M73.2275 101.076L94.2529 88.9856L94.2529 60.4521L73.2275 72.7844L73.2275 101.076Z" fill="#E9CA95" fill-opacity="1.000000" fill-rule="nonzero"/>
	<path id="Vector" d="M82.6533 76.895L75.1611 81.2476L75.1611 75.4441L82.6533 71.0916L82.6533 76.895Z" fill="#FFFFFF" fill-opacity="1.000000" fill-rule="nonzero"/>
	<path id="Vector" d="M44.9521 84.8748L73.2275 101.076L73.2275 72.7842L44.9521 56.3413L44.9521 84.8748Z" fill="#C7AB80" fill-opacity="1.000000" fill-rule="nonzero"/>
	<path id="Vector" d="M44.9521 56.3413L58.0029 63.8374L59.2109 64.5627L73.2275 72.7844L94.2539 60.4521L80.2363 52.4724L79.0283 51.7471L65.9775 44.251L44.9521 56.3413Z" fill="#EFD7A9" fill-opacity="1.000000" fill-rule="nonzero"/>
	<path id="Vector" d="M58.002 63.8372L59.21 64.5627L80.2363 52.4722L79.0273 51.7468L58.002 63.8372Z" fill="#C7AB80" fill-opacity="1.000000" fill-rule="nonzero"/>
</svg>
