<svg width="35" height="36" viewBox="0 0 35 36" fill="none" xmlns="http://www.w3.org/2000/svg">
<rect x="0.5" y="0.961365" width="34" height="34" stroke="#63DEA6"/>
<path d="M10.3321 9.76953H14.4281L16.476 14.8894L13.9161 16.4254C15.0127 18.649 16.8124 20.4487 19.036 21.5453L20.5719 18.9854L25.6918 21.0333V25.1292C25.6918 25.6724 25.4761 26.1933 25.092 26.5774C24.7079 26.9614 24.187 27.1772 23.6439 27.1772C19.6496 26.9345 15.8823 25.2383 13.0527 22.4087C10.2231 19.5791 8.52691 15.8118 8.28418 11.8175C8.28418 11.2743 8.49995 10.7534 8.88401 10.3694C9.26808 9.9853 9.78899 9.76953 10.3321 9.76953Z" stroke="#63DEA6" stroke-linecap="round" stroke-linejoin="round"/>
<path d="M20.5718 12.8415C21.1149 12.8415 21.6358 13.0572 22.0199 13.4413C22.404 13.8254 22.6197 14.3463 22.6197 14.8894" stroke="#63DEA6" stroke-linecap="round" stroke-linejoin="round"/>
<path d="M20.5718 8.74554C22.2012 8.74554 23.764 9.39284 24.9162 10.545C26.0684 11.6972 26.7157 13.26 26.7157 14.8894" stroke="#63DEA6" stroke-linecap="round" stroke-linejoin="round"/>
</svg>
