<svg width="22" height="23" viewBox="0 0 22 23" fill="none" xmlns="http://www.w3.org/2000/svg">
<g clip-path="url(#clip0_364_41694)">
<path d="M0 0.691895H1.20835C1.20835 8.02413 1.20835 15.383 1.20835 22.7153C0.789124 22.8219 0.394562 22.9819 0 23.1419C0 15.6763 0 8.18411 0 0.691895Z" fill="#63DEA6"/>
<path d="M1.92346 0.691895H2.53997C2.53997 7.99747 2.53997 15.303 2.53997 22.6353C2.34268 22.6353 2.1454 22.6353 1.94812 22.6353C1.92346 15.303 1.92346 7.99747 1.92346 0.691895Z" fill="#63DEA6"/>
<path d="M3.74835 0.691895H4.4635C4.4635 8.02413 4.4635 15.383 4.4635 22.7153C4.21689 22.7153 3.97029 22.7153 3.74835 22.7153C3.74835 15.383 3.74835 8.02413 3.74835 0.691895Z" fill="#63DEA6"/>
<path d="M7.00348 0.691895H8.21183C8.21183 8.02413 8.21183 15.383 8.21183 22.7153C7.81726 22.7153 7.39804 22.7153 7.00348 22.7153C7.00348 15.383 7.00348 8.02413 7.00348 0.691895Z" fill="#63DEA6"/>
<path d="M8.82831 0.691895H10.7518C10.7518 8.58405 10.7518 16.4495 10.7518 24.3417C10.4805 24.3417 10.1846 24.3684 9.91335 24.395C9.91335 23.8351 9.91335 23.2752 9.91335 22.7153C9.54345 22.7153 9.19821 22.7153 8.82831 22.7153C8.82831 15.383 8.82831 8.02413 8.82831 0.691895Z" fill="#63DEA6"/>
<path d="M11.3683 0.691895H12.0835C12.0835 8.61071 12.0835 16.5295 12.0835 24.4483C11.8369 24.4217 11.5903 24.395 11.3683 24.395C11.3683 16.4762 11.3683 8.58405 11.3683 0.691895Z" fill="#63DEA6"/>
<path d="M13.9083 0.691895H15.24C15.24 8.58405 15.24 16.4762 15.24 24.395C14.7961 24.4217 14.3522 24.4217 13.9083 24.4217C13.9083 16.5295 13.9083 8.61071 13.9083 0.691895Z" fill="#63DEA6"/>
<path d="M15.8318 0.691895H16.4483C16.4483 8.02413 16.4483 15.383 16.4483 22.7153C16.251 22.7153 16.0537 22.7153 15.8318 22.7153C15.8318 15.383 15.8318 8.02413 15.8318 0.691895Z" fill="#63DEA6"/>
<path d="M18.3718 0.691895H18.9883C18.9883 8.02413 18.9883 15.383 18.9883 22.7153C18.791 22.7153 18.5938 22.7153 18.3718 22.7153C18.3718 15.383 18.3718 8.02413 18.3718 0.691895Z" fill="#63DEA6"/>
<path d="M20.9118 0.691895H22.1201C22.1201 8.02413 22.1201 15.383 22.1201 22.7153C21.7256 22.7153 21.3064 22.7153 20.9118 22.7153C20.9118 15.383 20.9118 8.02413 20.9118 0.691895Z" fill="#63DEA6"/>
</g>
<defs>
<clipPath id="clip0_364_41694">
<rect width="22" height="22" fill="white" transform="translate(0 0.691895)"/>
</clipPath>
</defs>
</svg>
