<svg width="12.452148" height="12.452637" viewBox="0 0 12.4521 12.4526" fill="none" xmlns="http://www.w3.org/2000/svg" xmlns:xlink="http://www.w3.org/1999/xlink">
	<desc>
			Created with Pixso.
	</desc>
	<defs/>
	<path id="Vector" d="M5.0752 7.37708L11.9502 0.502075" stroke="#FFFFFF" stroke-opacity="1.000000" stroke-width="1.000000" stroke-linejoin="round" stroke-linecap="round"/>
	<path id="Vector" d="M7.8877 11.7521C7.86035 11.8119 7.81641 11.8627 7.76074 11.8982C7.70605 11.9337 7.6416 11.9526 7.5752 11.9526C7.50977 11.9526 7.44531 11.9337 7.38965 11.8982C7.33496 11.8627 7.29004 11.8119 7.2627 11.7521L5.0752 7.37708L0.700195 5.18958C0.640625 5.16211 0.589844 5.11816 0.554688 5.06274C0.518555 5.00732 0.5 4.94287 0.5 4.87708C0.5 4.81128 0.518555 4.74683 0.554688 4.69141C0.589844 4.63599 0.640625 4.59204 0.700195 4.56458L11.9502 0.502075L7.8877 11.7521Z" stroke="#FFFFFF" stroke-opacity="1.000000" stroke-width="1.000000" stroke-linejoin="round"/>
</svg>
