<svg width="22" height="23" viewBox="0 0 22 23" fill="none" xmlns="http://www.w3.org/2000/svg">
<path d="M9.16663 13.7171L19.25 3.63379" stroke="#04C1C1" stroke-width="2" stroke-linecap="round" stroke-linejoin="round"/>
<path d="M19.2499 3.63379L13.2916 20.1338C13.2514 20.2216 13.1868 20.2959 13.1056 20.3481C13.0243 20.4002 12.9298 20.4279 12.8333 20.4279C12.7367 20.4279 12.6422 20.4002 12.561 20.3481C12.4797 20.2959 12.4152 20.2216 12.3749 20.1338L9.16661 13.7171L2.74994 10.5088C2.66218 10.4686 2.58781 10.404 2.53567 10.3228C2.48353 10.2415 2.45581 10.147 2.45581 10.0505C2.45581 9.95392 2.48353 9.85941 2.53567 9.77816C2.58781 9.69691 2.66218 9.63234 2.74994 9.59212L19.2499 3.63379Z" stroke="#04C1C1" stroke-width="2" stroke-linecap="round" stroke-linejoin="round"/>
</svg>
