<svg width="22.000000" height="22.000000" viewBox="0 0 22 22" fill="none" xmlns="http://www.w3.org/2000/svg" xmlns:xlink="http://www.w3.org/1999/xlink">
	<desc>
			Created with Pixso.
	</desc>
	<defs>
		<clipPath id="clip337_41371">
			<rect id="send" width="22.000000" height="22.000000" fill="white" fill-opacity="0"/>
		</clipPath>
	</defs>
	<rect id="send" width="22.000000" height="22.000000" fill="#FFFFFF" fill-opacity="0"/>
	<g clip-path="url(#clip337_41371)">
		<path id="Vector" d="M9.16666 12.8333L19.25 2.75" stroke="#111010" stroke-opacity="1.000000" stroke-width="2.000000" stroke-linejoin="round" stroke-linecap="round"/>
		<path id="Vector" d="M13.2917 19.25C13.2515 19.3378 13.1869 19.4121 13.1056 19.4643C13.0244 19.5164 12.9299 19.5441 12.8333 19.5441C12.7368 19.5441 12.6423 19.5164 12.561 19.4643C12.4798 19.4121 12.4152 19.3378 12.375 19.25L9.16666 12.8333L2.75 9.625C2.66223 9.58478 2.58786 9.5202 2.53574 9.43896C2.48358 9.35773 2.45587 9.26318 2.45587 9.16669C2.45587 9.07013 2.48358 8.97565 2.53574 8.89435C2.58786 8.81311 2.66223 8.74854 2.75 8.70831L19.25 2.75L13.2917 19.25Z" stroke="#111010" stroke-opacity="1.000000" stroke-width="2.000000" stroke-linejoin="round"/>
	</g>
</svg>
