<svg width="30.000000" height="30.000000" viewBox="0 0 30 30" fill="none" xmlns="http://www.w3.org/2000/svg" xmlns:xlink="http://www.w3.org/1999/xlink">
	<desc>
			Created with Pixso.
	</desc>
	<defs>
		<clipPath id="clip279_46684">
			<rect id="send" width="30.000000" height="30.000000" fill="white" fill-opacity="0"/>
		</clipPath>
	</defs>
	<rect id="send" width="30.000000" height="30.000000" fill="#028ABE" fill-opacity="1.000000"/>
	<g clip-path="url(#clip279_46684)">
		<path id="Vector" d="M13.334 16.6676L22.1064 7.89526" stroke="#FFFFFF" stroke-opacity="1.000000" stroke-width="1.000000" stroke-linejoin="round" stroke-linecap="round"/>
		<path id="Vector" d="M16.9229 22.25C16.8877 22.3263 16.832 22.391 16.7607 22.4364C16.6904 22.4817 16.6084 22.5059 16.5244 22.5059C16.4404 22.5059 16.3584 22.4817 16.2871 22.4364C16.2168 22.391 16.1602 22.3263 16.126 22.25L13.334 16.6676L7.75195 13.8763C7.67578 13.8414 7.61133 13.7853 7.56543 13.7145C7.52051 13.6438 7.49609 13.5616 7.49609 13.4777C7.49609 13.3937 7.52051 13.3114 7.56543 13.2407C7.61133 13.17 7.67578 13.1139 7.75195 13.0789L22.1064 7.89526L16.9229 22.25Z" stroke="#FFFFFF" stroke-opacity="1.000000" stroke-width="1.000000" stroke-linejoin="round"/>
	</g>
</svg>
