<svg width="18" height="20" viewBox="0 0 18 20" fill="none" xmlns="http://www.w3.org/2000/svg">
<g clip-path="url(#clip0_364_40489)">
<path d="M16.5006 10.7486C16.0238 14.6113 13.2119 14.8524 12.6909 15.0211C12.4697 15.0935 10.4198 15.6047 7.83895 15.4359L5.04184 18.4739L5.03693 14.9729L5.01726 14.9681C1.26157 13.9217 1.38938 9.99145 1.42871 7.93232C1.47295 5.87318 1.85639 4.18054 3.00177 3.04729C5.05659 1.17622 9.29895 1.45592 9.29895 1.45592C12.8777 1.47039 14.5933 2.55541 14.9915 2.91709C16.3187 4.05034 16.9922 6.76531 16.5006 10.7486ZM15.9746 1.9478C15.5027 1.51379 13.6052 0.129778 9.37269 0.110489C9.37269 0.110489 4.38312 -0.193318 1.94979 2.04907C0.59302 3.40897 0.116185 5.40059 0.067027 7.8648C0.0178688 10.3338 -0.0460371 14.9585 4.39295 16.2123H4.39787V18.1267C4.39787 18.1267 4.36837 18.9031 4.87962 19.0574C5.4941 19.2503 5.85295 18.662 6.44285 18.0255C6.7673 17.6783 7.20972 17.1671 7.544 16.7765C10.582 17.0321 12.917 16.4437 13.1775 16.3618C13.792 16.1592 17.2577 15.7156 17.823 11.0909C18.3981 6.32166 17.533 3.3077 15.9746 1.9478Z" fill="white"/>
<path d="M13.2661 11.3223C13.2661 11.3223 12.6958 10.8449 12.4206 10.6424C12.16 10.4495 11.7422 10.1891 11.5111 10.0589C11.0933 9.82742 10.6656 9.97209 10.4886 10.2036L10.12 10.6665C9.93315 10.9028 9.64312 10.8594 9.56938 10.8449C9.02864 10.7099 8.45349 10.382 7.86359 9.8226C7.26877 9.25839 6.905 8.67006 6.77719 8.05763L6.76736 8.01905C6.73295 7.76829 6.77719 7.65255 6.88042 7.47895L6.90008 7.46448C7.14588 7.23783 7.60796 6.96296 7.66695 6.70255C7.84884 6.24925 7.06231 5.29925 6.95416 5.13529C6.95416 5.13529 6.38392 4.39747 6.18237 4.2528C5.96608 4.07438 5.62689 3.97311 5.28278 4.18047L5.26312 4.19493C4.28487 4.83148 3.93093 5.20763 4.02924 5.76219L4.0784 5.98884C4.5749 7.52717 5.5384 9.16676 6.96891 10.6279C8.38466 12.0698 9.9184 12.933 11.4276 13.531C11.8208 13.6612 12.2288 13.5503 12.6467 13.1982L12.6516 13.1934C12.9711 12.8992 13.2268 12.5858 13.4136 12.2482V12.2434C13.6004 11.8866 13.5365 11.5538 13.2661 11.3223Z" fill="white"/>
<path d="M10.9162 7.95639C10.8573 7.95639 10.8081 7.90816 10.8032 7.85029C10.7835 7.45004 10.6754 7.14623 10.4787 6.9437C10.2821 6.74116 9.99207 6.63024 9.60864 6.60613C9.54473 6.60131 9.50049 6.54826 9.50049 6.48557C9.5054 6.42288 9.55456 6.37466 9.61847 6.37948C10.0609 6.40359 10.4001 6.53862 10.636 6.78456C10.872 7.0305 11.0047 7.38253 11.0244 7.84065C11.0293 7.90334 10.9802 7.95639 10.9162 7.96121" fill="white"/>
<path d="M12.0322 8.33248C11.9683 8.33248 11.9191 8.27944 11.9191 8.21674C11.9388 7.44999 11.7077 6.8038 11.2407 6.29263C11.0097 6.03705 10.7245 5.83451 10.4001 5.69466C10.0757 5.54999 9.69223 5.46319 9.27438 5.43426C9.21048 5.42944 9.16623 5.37639 9.17115 5.3137C9.17606 5.25101 9.23014 5.20279 9.29404 5.20761C10.1936 5.27512 10.9064 5.58857 11.4128 6.14314C11.9191 6.69771 12.1698 7.40177 12.1501 8.22639C12.1452 8.27944 12.0961 8.33248 12.0322 8.33248Z" fill="white"/>
<path d="M13.1776 8.781C13.1136 8.781 13.0645 8.73278 13.0645 8.67009C13.0596 7.99496 12.9563 7.38252 12.7548 6.85207C12.5532 6.32643 12.2534 5.86349 11.8601 5.47288C11.4668 5.08709 11.0146 4.79293 10.5279 4.59521C10.0363 4.3975 9.49068 4.29623 8.90078 4.29623C8.83688 4.29623 8.78772 4.24318 8.78772 4.18049C8.78772 4.1178 8.83688 4.06958 8.90078 4.06958C10.1396 4.07922 11.1866 4.49395 12.0174 5.30892C12.4353 5.71882 12.7548 6.2107 12.9662 6.77009C13.1776 7.32466 13.2857 7.96603 13.2906 8.67009C13.2906 8.72796 13.2415 8.781 13.1776 8.781Z" fill="white"/>
</g>
<defs>
<clipPath id="clip0_364_40489">
<rect width="17.9428" height="19" fill="white" transform="translate(0.057251 0.0959473)"/>
</clipPath>
</defs>
</svg>
