<svg width="20" height="20" viewBox="0 0 20 20" fill="none" xmlns="http://www.w3.org/2000/svg">
<g clip-path="url(#clip0_364_40474)">
<path d="M16.5143 2.85704C14.7012 1.07756 12.2904 0.097033 9.72183 0.0959473C4.42892 0.0959473 0.121555 4.31929 0.119436 9.51038C0.118819 11.1697 0.56087 12.7895 1.40109 14.2173L0.0388184 19.0959L5.12916 17.7868C6.53164 18.537 8.11075 18.9323 9.7177 18.9329H9.72178H9.72183C15.0139 18.9329 19.3219 14.7088 19.3241 9.51801C19.325 7.00216 18.3271 4.63664 16.5143 2.85704ZM9.72183 17.3428H9.71871C8.28636 17.3421 6.88174 16.9649 5.65657 16.2518L5.365 16.0823L2.34429 16.8591L3.15078 13.9715L2.96081 13.6755C2.16183 12.4295 1.74004 10.9895 1.74064 9.51098C1.74239 5.19632 5.32251 1.68614 9.72485 1.68614C11.8567 1.68701 13.8604 2.50203 15.3673 3.98108C16.8742 5.46011 17.7034 7.42628 17.7028 9.51734C17.7009 13.8321 14.1207 17.3428 9.72183 17.3428Z" fill="white"/>
<path fill-rule="evenodd" clip-rule="evenodd" d="M9.72117 0.0976562C12.2602 0.0987575 14.6434 1.06801 16.4356 2.82706C18.2276 4.58624 19.2141 6.9246 19.2132 9.41152C19.211 14.5428 14.9525 18.7184 9.72117 18.7184H9.72112H9.71709C8.12857 18.7178 6.5676 18.327 5.1812 17.5854L0.149292 18.8795L1.49591 14.0569C0.665334 12.6455 0.22836 11.0443 0.228976 9.40401C0.231079 4.27251 4.489 0.0976562 9.72117 0.0976562ZM7.34876 5.51344C7.17111 5.12605 6.98407 5.11829 6.81505 5.11151C6.68438 5.10601 6.53581 5.10603 6.38648 5.10605H6.38647L6.36054 5.10605C6.20241 5.10605 5.94544 5.16434 5.72813 5.39711C5.71423 5.41199 5.69871 5.42822 5.68184 5.44586L5.68181 5.4459C5.4348 5.70426 4.89792 6.26582 4.89792 7.33707C4.89792 8.47367 5.73605 9.57214 5.86378 9.73954L5.86637 9.74294C5.87536 9.7547 5.89242 9.77949 5.91732 9.81569C6.22087 10.2569 7.6899 12.3924 9.91784 13.2541C11.7286 13.9545 12.2358 13.896 12.6377 13.8496C12.6805 13.8447 12.7221 13.8399 12.7639 13.8361C13.1988 13.7973 14.1671 13.2735 14.3648 12.7303C14.5624 12.1872 14.5624 11.7217 14.5031 11.6244C14.4554 11.5463 14.3436 11.4934 14.1781 11.4151L14.1781 11.4151C14.138 11.3961 14.0948 11.3756 14.0485 11.3529C13.8113 11.2366 12.6453 10.6738 12.4279 10.5962C12.2104 10.5187 12.0523 10.4799 11.8942 10.7128C11.736 10.9454 11.2818 11.4693 11.1434 11.6244C11.005 11.7798 10.8666 11.7992 10.6294 11.6829C10.5905 11.6637 10.5374 11.6411 10.4718 11.6132C10.1376 11.4709 9.47962 11.1907 8.72219 10.5283C8.01713 9.91183 7.54111 9.15038 7.40275 8.9175C7.26438 8.68485 7.38791 8.55883 7.50689 8.44286C7.57797 8.3733 7.65984 8.27562 7.7417 8.17795L7.74174 8.1779C7.78251 8.12926 7.82327 8.08063 7.8627 8.03547C7.9633 7.92 8.00695 7.83264 8.06635 7.71376C8.07683 7.6928 8.08779 7.67085 8.09965 7.6476C8.17871 7.49225 8.13918 7.35643 8.07988 7.24011C8.05472 7.19074 7.95723 6.95517 7.83721 6.66517C7.67441 6.27177 7.47016 5.77822 7.34876 5.51344Z" fill="white"/>
</g>
<defs>
<clipPath id="clip0_364_40474">
<rect width="19.2866" height="19" fill="white" transform="translate(0.0379639 0.0959473)"/>
</clipPath>
</defs>
</svg>
